# Wavefront OBJ file automatically generated by Tiled2Unity

# Vertices (Count = 377)
v 0 -64 0
v -64 -64 0
v -64 0 0
v 0 0 0
v -128 -64 0
v -128 0 0
v -192 -64 0
v -192 0 0
v -256 -64 0
v -256 0 0
v -320 -64 0
v -320 0 0
v -384 -64 0
v -384 0 0
v -448 -64 0
v -448 0 0
v -512 -64 0
v -512 0 0
v -576 -64 0
v -576 0 0
v -640 -64 0
v -640 0 0
v -704 -64 0
v -704 0 0
v -768 -64 0
v -768 0 0
v -832 -64 0
v -832 0 0
v -896 -64 0
v -896 0 0
v -960 -64 0
v -960 0 0
v -1024 -64 0
v -1024 0 0
v -1088 -64 0
v -1088 0 0
v -1152 -64 0
v -1152 0 0
v 0 -128 0
v -64 -128 0
v -128 -128 0
v -192 -128 0
v -256 -128 0
v -320 -128 0
v -384 -128 0
v -448 -128 0
v -512 -128 0
v -576 -128 0
v -640 -128 0
v -704 -128 0
v -768 -128 0
v -832 -128 0
v -896 -128 0
v -960 -128 0
v -1024 -128 0
v -1088 -128 0
v -1152 -128 0
v 0 -192 0
v -64 -192 0
v -128 -192 0
v -192 -192 0
v -256 -192 0
v -320 -192 0
v -384 -192 0
v -448 -192 0
v -512 -192 0
v -576 -192 0
v -640 -192 0
v -704 -192 0
v -768 -192 0
v -832 -192 0
v -896 -192 0
v -960 -192 0
v -1024 -192 0
v -1088 -192 0
v -1152 -192 0
v 0 -256 0
v -64 -256 0
v -128 -256 0
v -1024 -256 0
v -1088 -256 0
v -1152 -256 0
v 0 -320 0
v -64 -320 0
v -128 -320 0
v -192 -320 0
v -192 -256 0
v -256 -320 0
v -256 -256 0
v -320 -320 0
v -320 -256 0
v -384 -320 0
v -384 -256 0
v -448 -320 0
v -448 -256 0
v -512 -320 0
v -512 -256 0
v -576 -320 0
v -576 -256 0
v -640 -320 0
v -640 -256 0
v -704 -320 0
v -704 -256 0
v -768 -320 0
v -768 -256 0
v -832 -320 0
v -832 -256 0
v -896 -320 0
v -896 -256 0
v -1024 -320 0
v -1088 -320 0
v -1152 -320 0
v 0 -384 0
v -64 -384 0
v -128 -384 0
v -192 -384 0
v -256 -384 0
v -320 -384 0
v -384 -384 0
v -448 -384 0
v -512 -384 0
v -576 -384 0
v -640 -384 0
v -704 -384 0
v -768 -384 0
v -832 -384 0
v -896 -384 0
v -1024 -384 0
v -1088 -384 0
v -1152 -384 0
v 0 -448 0
v -64 -448 0
v -128 -448 0
v -192 -448 0
v -256 -448 0
v -320 -448 0
v -384 -448 0
v -448 -448 0
v -512 -448 0
v -576 -448 0
v -640 -448 0
v -704 -448 0
v -768 -448 0
v -832 -448 0
v -896 -448 0
v -1024 -448 0
v -1088 -448 0
v -1152 -448 0
v 0 -512 0
v -64 -512 0
v -128 -512 0
v -192 -512 0
v -256 -512 0
v -320 -512 0
v -384 -512 0
v -448 -512 0
v -512 -512 0
v -576 -512 0
v -640 -512 0
v -704 -512 0
v -768 -512 0
v -832 -512 0
v -896 -512 0
v -1024 -512 0
v -1088 -512 0
v -1152 -512 0
v 0 -576 0
v -64 -576 0
v -128 -576 0
v -192 -576 0
v -256 -576 0
v -320 -576 0
v -384 -576 0
v -448 -576 0
v -512 -576 0
v -576 -576 0
v -640 -576 0
v -704 -576 0
v -768 -576 0
v -832 -576 0
v -896 -576 0
v -1024 -576 0
v -1088 -576 0
v -1152 -576 0
v -128 -640 0
v -192 -640 0
v -256 -640 0
v -384 -640 0
v -448 -640 0
v -512 -640 0
v -768 -640 0
v -832 -640 0
v -896 -640 0
v -1024 -640 0
v -1088 -640 0
v -1152 -640 0
v 0 -704 0
v -64 -704 0
v -64 -640 0
v 0 -640 0
v -128 -704 0
v -192 -704 0
v -256 -704 0
v -384 -704 0
v -448 -704 0
v -512 -704 0
v -768 -704 0
v -832 -704 0
v -896 -704 0
v -1024 -704 0
v -1088 -704 0
v -1152 -704 0
v 0 -768 0
v -64 -768 0
v -128 -768 0
v -384 -768 0
v -448 -768 0
v -512 -768 0
v -768 -768 0
v -832 -768 0
v -896 -768 0
v -1024 -768 0
v -1088 -768 0
v -1152 -768 0
v 0 -832 0
v -64 -832 0
v -128 -832 0
v -192 -832 0
v -192 -768 0
v -256 -832 0
v -256 -768 0
v -320 -832 0
v -320 -768 0
v -384 -832 0
v -448 -832 0
v -512 -832 0
v -576 -832 0
v -576 -768 0
v -640 -832 0
v -640 -768 0
v -704 -832 0
v -704 -768 0
v -768 -832 0
v -832 -832 0
v -896 -832 0
v -1024 -832 0
v -1088 -832 0
v -1152 -832 0
v 0 -896 0
v -64 -896 0
v -128 -896 0
v -192 -896 0
v -256 -896 0
v -320 -896 0
v -384 -896 0
v -448 -896 0
v -512 -896 0
v -576 -896 0
v -640 -896 0
v -704 -896 0
v -768 -896 0
v -832 -896 0
v -896 -896 0
v -1024 -896 0
v -1088 -896 0
v -1152 -896 0
v 0 -960 0
v -64 -960 0
v -128 -960 0
v -192 -960 0
v -256 -960 0
v -320 -960 0
v -384 -960 0
v -448 -960 0
v -512 -960 0
v -576 -960 0
v -640 -960 0
v -704 -960 0
v -768 -960 0
v -832 -960 0
v -896 -960 0
v -1024 -960 0
v -1088 -960 0
v -1152 -960 0
v 0 -1024 0
v -64 -1024 0
v -128 -1024 0
v -192 -1024 0
v -256 -1024 0
v -384 -1024 0
v -448 -1024 0
v -512 -1024 0
v -576 -1024 0
v -640 -1024 0
v -704 -1024 0
v -768 -1024 0
v -832 -1024 0
v -896 -1024 0
v -1024 -1024 0
v -1088 -1024 0
v -1152 -1024 0
v 0 -1088 0
v -64 -1088 0
v -128 -1088 0
v -192 -1088 0
v -256 -1088 0
v -320 -1088 0
v -320 -1024 0
v -384 -1088 0
v -448 -1088 0
v -512 -1088 0
v -576 -1088 0
v -640 -1088 0
v -704 -1088 0
v -768 -1088 0
v -832 -1088 0
v -896 -1088 0
v -1024 -1088 0
v -1088 -1088 0
v -1152 -1088 0
v 0 -1152 0
v -64 -1152 0
v -128 -1152 0
v -192 -1152 0
v -256 -1152 0
v -320 -1152 0
v -384 -1152 0
v -448 -1152 0
v -512 -1152 0
v -576 -1152 0
v -640 -1152 0
v -704 -1152 0
v -768 -1152 0
v -832 -1152 0
v -896 -1152 0
v -1024 -1152 0
v -1088 -1152 0
v -1152 -1152 0
v 0 -1216 0
v -64 -1216 0
v -128 -1216 0
v -192 -1216 0
v -256 -1216 0
v -320 -1216 0
v -384 -1216 0
v -448 -1216 0
v -512 -1216 0
v -576 -1216 0
v -640 -1216 0
v -704 -1216 0
v -768 -1216 0
v -832 -1216 0
v -896 -1216 0
v -960 -1216 0
v -960 -1152 0
v -1024 -1216 0
v -1088 -1216 0
v -1152 -1216 0
v 0 -1280 0
v -64 -1280 0
v -128 -1280 0
v -192 -1280 0
v -256 -1280 0
v -320 -1280 0
v -384 -1280 0
v -448 -1280 0
v -512 -1280 0
v -576 -1280 0
v -640 -1280 0
v -704 -1280 0
v -768 -1280 0
v -832 -1280 0
v -896 -1280 0
v -960 -1280 0
v -1024 -1280 0
v -1088 -1280 0
v -1152 -1280 0

# Texture Coorindates (Count = 20)
vt 0 0.8125
vt 0.0625 0.8125
vt 0.0625 0.875
vt 0 0.875
vt 0.125 0.8125
vt 0.125 0.875
vt 0.1875 0.8125
vt 0.1875 0.875
vt 0 0.75
vt 0.0625 0.75
vt 0.125 0.75
vt 0.0625 0.6875
vt 0.125 0.6875
vt 0.1875 0.75
vt 0.0625 0.625
vt 0.125 0.625
vt 0 0.6875
vt 0.1875 0.6875
vt 0 0.625
vt 0.1875 0.625

# Normal
vn 0 0 -1

# Groups (Count = 1)
g mesh_[00]_[00]
f  1/1/1  2/2/1  3/3/1  4/4/1 
f  2/2/1  5/5/1  6/6/1  3/3/1 
f  5/2/1  7/5/1  8/6/1  6/3/1 
f  7/2/1  9/5/1  10/6/1  8/3/1 
f  9/2/1  11/5/1  12/6/1  10/3/1 
f  11/2/1  13/5/1  14/6/1  12/3/1 
f  13/2/1  15/5/1  16/6/1  14/3/1 
f  15/2/1  17/5/1  18/6/1  16/3/1 
f  17/2/1  19/5/1  20/6/1  18/3/1 
f  19/2/1  21/5/1  22/6/1  20/3/1 
f  21/2/1  23/5/1  24/6/1  22/3/1 
f  23/2/1  25/5/1  26/6/1  24/3/1 
f  25/2/1  27/5/1  28/6/1  26/3/1 
f  27/2/1  29/5/1  30/6/1  28/3/1 
f  29/2/1  31/5/1  32/6/1  30/3/1 
f  31/2/1  33/5/1  34/6/1  32/3/1 
f  33/2/1  35/5/1  36/6/1  34/3/1 
f  35/5/1  37/7/1  38/8/1  36/6/1 
f  39/9/1  40/10/1  2/2/1  1/1/1 
f  40/10/1  41/11/1  5/5/1  2/2/1 
f  41/12/1  42/13/1  7/11/1  5/10/1 
f  42/12/1  43/13/1  9/11/1  7/10/1 
f  43/12/1  44/13/1  11/11/1  9/10/1 
f  44/12/1  45/13/1  13/11/1  11/10/1 
f  45/12/1  46/13/1  15/11/1  13/10/1 
f  46/12/1  47/13/1  17/11/1  15/10/1 
f  47/12/1  48/13/1  19/11/1  17/10/1 
f  48/12/1  49/13/1  21/11/1  19/10/1 
f  49/12/1  50/13/1  23/11/1  21/10/1 
f  50/12/1  51/13/1  25/11/1  23/10/1 
f  51/12/1  52/13/1  27/11/1  25/10/1 
f  52/12/1  53/13/1  29/11/1  27/10/1 
f  53/12/1  54/13/1  31/11/1  29/10/1 
f  54/12/1  55/13/1  33/11/1  31/10/1 
f  55/10/1  56/11/1  35/5/1  33/2/1 
f  56/11/1  57/14/1  37/7/1  35/5/1 
f  58/9/1  59/10/1  40/2/1  39/1/1 
f  59/11/1  60/14/1  41/7/1  40/5/1 
f  60/15/1  61/16/1  42/13/1  41/12/1 
f  61/15/1  62/16/1  43/13/1  42/12/1 
f  62/15/1  63/16/1  44/13/1  43/12/1 
f  63/15/1  64/16/1  45/13/1  44/12/1 
f  64/15/1  65/16/1  46/13/1  45/12/1 
f  65/15/1  66/16/1  47/13/1  46/12/1 
f  66/15/1  67/16/1  48/13/1  47/12/1 
f  67/15/1  68/16/1  49/13/1  48/12/1 
f  68/15/1  69/16/1  50/13/1  49/12/1 
f  69/15/1  70/16/1  51/13/1  50/12/1 
f  70/15/1  71/16/1  52/13/1  51/12/1 
f  71/15/1  72/16/1  53/13/1  52/12/1 
f  72/15/1  73/16/1  54/13/1  53/12/1 
f  73/15/1  74/16/1  55/13/1  54/12/1 
f  74/9/1  75/10/1  56/2/1  55/1/1 
f  75/11/1  76/14/1  57/7/1  56/5/1 
f  77/9/1  78/10/1  59/2/1  58/1/1 
f  78/11/1  79/14/1  60/7/1  59/5/1 
f  80/9/1  81/10/1  75/2/1  74/1/1 
f  81/11/1  82/14/1  76/7/1  75/5/1 
f  83/9/1  84/10/1  78/2/1  77/1/1 
f  84/10/1  85/11/1  79/5/1  78/2/1 
f  85/2/1  86/5/1  87/6/1  79/3/1 
f  86/2/1  88/5/1  89/6/1  87/3/1 
f  88/2/1  90/5/1  91/6/1  89/3/1 
f  90/2/1  92/5/1  93/6/1  91/3/1 
f  92/2/1  94/5/1  95/6/1  93/3/1 
f  94/2/1  96/5/1  97/6/1  95/3/1 
f  96/2/1  98/5/1  99/6/1  97/3/1 
f  98/2/1  100/5/1  101/6/1  99/3/1 
f  100/2/1  102/5/1  103/6/1  101/3/1 
f  102/2/1  104/5/1  105/6/1  103/3/1 
f  104/2/1  106/5/1  107/6/1  105/3/1 
f  106/2/1  108/5/1  109/6/1  107/3/1 
f  110/9/1  111/10/1  81/2/1  80/1/1 
f  111/11/1  112/14/1  82/7/1  81/5/1 
f  113/9/1  114/10/1  84/2/1  83/1/1 
f  114/10/1  115/11/1  85/5/1  84/2/1 
f  115/10/1  116/11/1  86/5/1  85/2/1 
f  116/10/1  117/11/1  88/5/1  86/2/1 
f  117/10/1  118/11/1  90/5/1  88/2/1 
f  118/10/1  119/11/1  92/5/1  90/2/1 
f  119/10/1  120/11/1  94/5/1  92/2/1 
f  120/10/1  121/11/1  96/5/1  94/2/1 
f  121/10/1  122/11/1  98/5/1  96/2/1 
f  122/10/1  123/11/1  100/5/1  98/2/1 
f  123/10/1  124/11/1  102/5/1  100/2/1 
f  124/10/1  125/11/1  104/5/1  102/2/1 
f  125/10/1  126/11/1  106/5/1  104/2/1 
f  126/11/1  127/14/1  108/7/1  106/5/1 
f  128/9/1  129/10/1  111/2/1  110/1/1 
f  129/11/1  130/14/1  112/7/1  111/5/1 
f  131/9/1  132/10/1  114/2/1  113/1/1 
f  132/10/1  133/11/1  115/5/1  114/2/1 
f  133/10/1  134/11/1  116/5/1  115/2/1 
f  134/10/1  135/11/1  117/5/1  116/2/1 
f  135/10/1  136/11/1  118/5/1  117/2/1 
f  136/10/1  137/11/1  119/5/1  118/2/1 
f  137/10/1  138/11/1  120/5/1  119/2/1 
f  138/10/1  139/11/1  121/5/1  120/2/1 
f  139/10/1  140/11/1  122/5/1  121/2/1 
f  140/10/1  141/11/1  123/5/1  122/2/1 
f  141/10/1  142/11/1  124/5/1  123/2/1 
f  142/10/1  143/11/1  125/5/1  124/2/1 
f  143/10/1  144/11/1  126/5/1  125/2/1 
f  144/11/1  145/14/1  127/7/1  126/5/1 
f  146/9/1  147/10/1  129/2/1  128/1/1 
f  147/11/1  148/14/1  130/7/1  129/5/1 
f  149/12/1  150/13/1  132/11/1  131/10/1 
f  150/12/1  151/13/1  133/11/1  132/10/1 
f  151/10/1  152/11/1  134/5/1  133/2/1 
f  152/10/1  153/11/1  135/5/1  134/2/1 
f  153/12/1  154/13/1  136/11/1  135/10/1 
f  154/12/1  155/13/1  137/11/1  136/10/1 
f  155/10/1  156/11/1  138/5/1  137/2/1 
f  156/10/1  157/11/1  139/5/1  138/2/1 
f  157/12/1  158/13/1  140/11/1  139/10/1 
f  158/12/1  159/13/1  141/11/1  140/10/1 
f  159/12/1  160/13/1  142/11/1  141/10/1 
f  160/12/1  161/13/1  143/11/1  142/10/1 
f  161/10/1  162/11/1  144/5/1  143/2/1 
f  162/11/1  163/14/1  145/7/1  144/5/1 
f  164/9/1  165/10/1  147/2/1  146/1/1 
f  165/11/1  166/14/1  148/7/1  147/5/1 
f  167/15/1  168/16/1  150/13/1  149/12/1 
f  168/15/1  169/16/1  151/13/1  150/12/1 
f  169/9/1  170/10/1  152/2/1  151/1/1 
f  170/11/1  171/14/1  153/7/1  152/5/1 
f  171/15/1  172/16/1  154/13/1  153/12/1 
f  172/15/1  173/16/1  155/13/1  154/12/1 
f  173/9/1  174/10/1  156/2/1  155/1/1 
f  174/11/1  175/14/1  157/7/1  156/5/1 
f  175/15/1  176/16/1  158/13/1  157/12/1 
f  176/15/1  177/16/1  159/13/1  158/12/1 
f  177/15/1  178/16/1  160/13/1  159/12/1 
f  178/15/1  179/16/1  161/13/1  160/12/1 
f  179/9/1  180/10/1  162/2/1  161/1/1 
f  180/11/1  181/14/1  163/7/1  162/5/1 
f  182/9/1  183/10/1  165/2/1  164/1/1 
f  183/11/1  184/14/1  166/7/1  165/5/1 
f  185/17/1  186/12/1  170/10/1  169/9/1 
f  186/13/1  187/18/1  171/14/1  170/11/1 
f  188/9/1  189/10/1  174/2/1  173/1/1 
f  189/11/1  190/14/1  175/7/1  174/5/1 
f  191/9/1  192/10/1  180/2/1  179/1/1 
f  192/11/1  193/14/1  181/7/1  180/5/1 
f  194/9/1  195/10/1  183/2/1  182/1/1 
f  195/11/1  196/14/1  184/7/1  183/5/1 
f  197/1/1  198/2/1  199/3/1  200/4/1 
f  198/5/1  201/7/1  185/8/1  199/6/1 
f  201/19/1  202/15/1  186/12/1  185/17/1 
f  202/16/1  203/20/1  187/18/1  186/13/1 
f  204/9/1  205/10/1  189/2/1  188/1/1 
f  205/11/1  206/14/1  190/7/1  189/5/1 
f  207/9/1  208/10/1  192/2/1  191/1/1 
f  208/11/1  209/14/1  193/7/1  192/5/1 
f  210/9/1  211/10/1  195/2/1  194/1/1 
f  211/11/1  212/14/1  196/7/1  195/5/1 
f  213/9/1  214/10/1  198/2/1  197/1/1 
f  214/11/1  215/14/1  201/7/1  198/5/1 
f  216/9/1  217/10/1  205/2/1  204/1/1 
f  217/11/1  218/14/1  206/7/1  205/5/1 
f  219/9/1  220/10/1  208/2/1  207/1/1 
f  220/11/1  221/14/1  209/7/1  208/5/1 
f  222/9/1  223/10/1  211/2/1  210/1/1 
f  223/11/1  224/14/1  212/7/1  211/5/1 
f  225/9/1  226/10/1  214/2/1  213/1/1 
f  226/10/1  227/11/1  215/5/1  214/2/1 
f  227/2/1  228/5/1  229/6/1  215/3/1 
f  228/2/1  230/5/1  231/6/1  229/3/1 
f  230/2/1  232/5/1  233/6/1  231/3/1 
f  232/2/1  234/5/1  216/6/1  233/3/1 
f  234/10/1  235/11/1  217/5/1  216/2/1 
f  235/10/1  236/11/1  218/5/1  217/2/1 
f  236/2/1  237/5/1  238/6/1  218/3/1 
f  237/2/1  239/5/1  240/6/1  238/3/1 
f  239/2/1  241/5/1  242/6/1  240/3/1 
f  241/2/1  243/5/1  219/6/1  242/3/1 
f  243/10/1  244/11/1  220/5/1  219/2/1 
f  244/11/1  245/14/1  221/7/1  220/5/1 
f  246/9/1  247/10/1  223/2/1  222/1/1 
f  247/11/1  248/14/1  224/7/1  223/5/1 
f  249/9/1  250/10/1  226/2/1  225/1/1 
f  250/10/1  251/11/1  227/5/1  226/2/1 
f  251/10/1  252/11/1  228/5/1  227/2/1 
f  252/10/1  253/11/1  230/5/1  228/2/1 
f  253/12/1  254/13/1  232/11/1  230/10/1 
f  254/12/1  255/13/1  234/11/1  232/10/1 
f  255/10/1  256/11/1  235/5/1  234/2/1 
f  256/10/1  257/11/1  236/5/1  235/2/1 
f  257/10/1  258/11/1  237/5/1  236/2/1 
f  258/10/1  259/11/1  239/5/1  237/2/1 
f  259/10/1  260/11/1  241/5/1  239/2/1 
f  260/10/1  261/11/1  243/5/1  241/2/1 
f  261/10/1  262/11/1  244/5/1  243/2/1 
f  262/11/1  263/14/1  245/7/1  244/5/1 
f  264/9/1  265/10/1  247/2/1  246/1/1 
f  265/11/1  266/14/1  248/7/1  247/5/1 
f  267/9/1  268/10/1  250/2/1  249/1/1 
f  268/10/1  269/11/1  251/5/1  250/2/1 
f  269/10/1  270/11/1  252/5/1  251/2/1 
f  270/11/1  271/14/1  253/7/1  252/5/1 
f  271/15/1  272/16/1  254/13/1  253/12/1 
f  272/15/1  273/16/1  255/13/1  254/12/1 
f  273/9/1  274/10/1  256/2/1  255/1/1 
f  274/10/1  275/11/1  257/5/1  256/2/1 
f  275/10/1  276/11/1  258/5/1  257/2/1 
f  276/10/1  277/11/1  259/5/1  258/2/1 
f  277/10/1  278/11/1  260/5/1  259/2/1 
f  278/10/1  279/11/1  261/5/1  260/2/1 
f  279/10/1  280/11/1  262/5/1  261/2/1 
f  280/11/1  281/14/1  263/7/1  262/5/1 
f  282/9/1  283/10/1  265/2/1  264/1/1 
f  283/11/1  284/14/1  266/7/1  265/5/1 
f  285/9/1  286/10/1  268/2/1  267/1/1 
f  286/10/1  287/11/1  269/5/1  268/2/1 
f  287/10/1  288/11/1  270/5/1  269/2/1 
f  288/11/1  289/14/1  271/7/1  270/5/1 
f  290/9/1  291/10/1  274/2/1  273/1/1 
f  291/10/1  292/11/1  275/5/1  274/2/1 
f  292/10/1  293/11/1  276/5/1  275/2/1 
f  293/10/1  294/11/1  277/5/1  276/2/1 
f  294/10/1  295/11/1  278/5/1  277/2/1 
f  295/10/1  296/11/1  279/5/1  278/2/1 
f  296/10/1  297/11/1  280/5/1  279/2/1 
f  297/11/1  298/14/1  281/7/1  280/5/1 
f  299/9/1  300/10/1  283/2/1  282/1/1 
f  300/11/1  301/14/1  284/7/1  283/5/1 
f  302/9/1  303/10/1  286/2/1  285/1/1 
f  303/10/1  304/11/1  287/5/1  286/2/1 
f  304/10/1  305/11/1  288/5/1  287/2/1 
f  305/10/1  306/11/1  289/5/1  288/2/1 
f  306/2/1  307/5/1  308/6/1  289/3/1 
f  307/2/1  309/5/1  290/6/1  308/3/1 
f  309/10/1  310/11/1  291/5/1  290/2/1 
f  310/10/1  311/11/1  292/5/1  291/2/1 
f  311/10/1  312/11/1  293/5/1  292/2/1 
f  312/10/1  313/11/1  294/5/1  293/2/1 
f  313/10/1  314/11/1  295/5/1  294/2/1 
f  314/10/1  315/11/1  296/5/1  295/2/1 
f  315/10/1  316/11/1  297/5/1  296/2/1 
f  316/11/1  317/14/1  298/7/1  297/5/1 
f  318/9/1  319/10/1  300/2/1  299/1/1 
f  319/11/1  320/14/1  301/7/1  300/5/1 
f  321/9/1  322/10/1  303/2/1  302/1/1 
f  322/10/1  323/11/1  304/5/1  303/2/1 
f  323/10/1  324/11/1  305/5/1  304/2/1 
f  324/10/1  325/11/1  306/5/1  305/2/1 
f  325/10/1  326/11/1  307/5/1  306/2/1 
f  326/10/1  327/11/1  309/5/1  307/2/1 
f  327/10/1  328/11/1  310/5/1  309/2/1 
f  328/10/1  329/11/1  311/5/1  310/2/1 
f  329/10/1  330/11/1  312/5/1  311/2/1 
f  330/10/1  331/11/1  313/5/1  312/2/1 
f  331/10/1  332/11/1  314/5/1  313/2/1 
f  332/10/1  333/11/1  315/5/1  314/2/1 
f  333/10/1  334/11/1  316/5/1  315/2/1 
f  334/11/1  335/14/1  317/7/1  316/5/1 
f  336/9/1  337/10/1  319/2/1  318/1/1 
f  337/11/1  338/14/1  320/7/1  319/5/1 
f  339/17/1  340/12/1  322/10/1  321/9/1 
f  340/12/1  341/13/1  323/11/1  322/10/1 
f  341/12/1  342/13/1  324/11/1  323/10/1 
f  342/12/1  343/13/1  325/11/1  324/10/1 
f  343/12/1  344/13/1  326/11/1  325/10/1 
f  344/12/1  345/13/1  327/11/1  326/10/1 
f  345/12/1  346/13/1  328/11/1  327/10/1 
f  346/12/1  347/13/1  329/11/1  328/10/1 
f  347/12/1  348/13/1  330/11/1  329/10/1 
f  348/12/1  349/13/1  331/11/1  330/10/1 
f  349/12/1  350/13/1  332/11/1  331/10/1 
f  350/12/1  351/13/1  333/11/1  332/10/1 
f  351/12/1  352/13/1  334/11/1  333/10/1 
f  352/12/1  353/13/1  335/11/1  334/10/1 
f  353/2/1  354/5/1  355/6/1  335/3/1 
f  354/2/1  356/5/1  336/6/1  355/3/1 
f  356/12/1  357/13/1  337/11/1  336/10/1 
f  357/13/1  358/18/1  338/14/1  337/11/1 
f  359/19/1  360/15/1  340/12/1  339/17/1 
f  360/19/1  361/15/1  341/12/1  340/17/1 
f  361/19/1  362/15/1  342/12/1  341/17/1 
f  362/19/1  363/15/1  343/12/1  342/17/1 
f  363/19/1  364/15/1  344/12/1  343/17/1 
f  364/19/1  365/15/1  345/12/1  344/17/1 
f  365/19/1  366/15/1  346/12/1  345/17/1 
f  366/19/1  367/15/1  347/12/1  346/17/1 
f  367/19/1  368/15/1  348/12/1  347/17/1 
f  368/19/1  369/15/1  349/12/1  348/17/1 
f  369/19/1  370/15/1  350/12/1  349/17/1 
f  370/19/1  371/15/1  351/12/1  350/17/1 
f  371/19/1  372/15/1  352/12/1  351/17/1 
f  372/19/1  373/15/1  353/12/1  352/17/1 
f  373/19/1  374/15/1  354/12/1  353/17/1 
f  374/19/1  375/15/1  356/12/1  354/17/1 
f  375/15/1  376/16/1  357/13/1  356/12/1 
f  376/16/1  377/20/1  358/18/1  357/13/1 
