# Wavefront OBJ file automatically generated by Tiled2Unity

# Vertices (Count = 389)
v 0 -64 0
v -64 -64 0
v -64 0 0
v 0 0 0
v -128 -64 0
v -128 0 0
v -192 -64 0
v -192 0 0
v -256 -64 0
v -256 0 0
v -320 -64 0
v -320 0 0
v -384 -64 0
v -384 0 0
v -448 -64 0
v -448 0 0
v -512 -64 0
v -512 0 0
v -576 -64 0
v -576 0 0
v -640 -64 0
v -640 0 0
v -704 -64 0
v -704 0 0
v -768 -64 0
v -768 0 0
v -832 -64 0
v -832 0 0
v -896 -64 0
v -896 0 0
v -960 -64 0
v -960 0 0
v -1024 -64 0
v -1024 0 0
v -1088 -64 0
v -1088 0 0
v -1152 -64 0
v -1152 0 0
v 0 -128 0
v -64 -128 0
v -128 -128 0
v -192 -128 0
v -256 -128 0
v -320 -128 0
v -384 -128 0
v -448 -128 0
v -512 -128 0
v -576 -128 0
v -640 -128 0
v -704 -128 0
v -768 -128 0
v -832 -128 0
v -896 -128 0
v -960 -128 0
v -1024 -128 0
v -1088 -128 0
v -1152 -128 0
v 0 -192 0
v -64 -192 0
v -128 -192 0
v -192 -192 0
v -256 -192 0
v -320 -192 0
v -384 -192 0
v -448 -192 0
v -512 -192 0
v -576 -192 0
v -640 -192 0
v -704 -192 0
v -768 -192 0
v -832 -192 0
v -896 -192 0
v -960 -192 0
v -1024 -192 0
v -1088 -192 0
v -1152 -192 0
v 0 -256 0
v -64 -256 0
v -128 -256 0
v -192 -256 0
v -256 -256 0
v -320 -256 0
v -384 -256 0
v -448 -256 0
v -512 -256 0
v -576 -256 0
v -640 -256 0
v -704 -256 0
v -768 -256 0
v -832 -256 0
v -896 -256 0
v -960 -256 0
v -1024 -256 0
v -1088 -256 0
v -1152 -256 0
v 0 -320 0
v -64 -320 0
v -128 -320 0
v -192 -320 0
v -256 -320 0
v -320 -320 0
v -384 -320 0
v -768 -320 0
v -832 -320 0
v -896 -320 0
v -960 -320 0
v -1024 -320 0
v -1088 -320 0
v -1152 -320 0
v 0 -384 0
v -64 -384 0
v -128 -384 0
v -192 -384 0
v -256 -384 0
v -320 -384 0
v -384 -384 0
v -768 -384 0
v -832 -384 0
v -896 -384 0
v -960 -384 0
v -1024 -384 0
v -1088 -384 0
v -1152 -384 0
v 0 -448 0
v -64 -448 0
v -128 -448 0
v -192 -448 0
v -256 -448 0
v -320 -448 0
v -384 -448 0
v -448 -448 0
v -448 -384 0
v -512 -448 0
v -512 -384 0
v -576 -448 0
v -576 -384 0
v -640 -448 0
v -640 -384 0
v -704 -448 0
v -704 -384 0
v -768 -448 0
v -832 -448 0
v -896 -448 0
v -960 -448 0
v -1024 -448 0
v -1088 -448 0
v -1152 -448 0
v 0 -512 0
v -64 -512 0
v -128 -512 0
v -192 -512 0
v -256 -512 0
v -320 -512 0
v -384 -512 0
v -448 -512 0
v -512 -512 0
v -576 -512 0
v -640 -512 0
v -704 -512 0
v -768 -512 0
v -832 -512 0
v -896 -512 0
v -960 -512 0
v -1024 -512 0
v -1088 -512 0
v -1152 -512 0
v 0 -576 0
v -64 -576 0
v -128 -576 0
v -192 -576 0
v -256 -576 0
v -320 -576 0
v -384 -576 0
v -448 -576 0
v -512 -576 0
v -576 -576 0
v -640 -576 0
v -704 -576 0
v -768 -576 0
v -832 -576 0
v -896 -576 0
v -960 -576 0
v -1024 -576 0
v -1088 -576 0
v -1152 -576 0
v 0 -640 0
v -64 -640 0
v -128 -640 0
v -192 -640 0
v -256 -640 0
v -320 -640 0
v -384 -640 0
v -448 -640 0
v -512 -640 0
v -576 -640 0
v -640 -640 0
v -704 -640 0
v -768 -640 0
v -832 -640 0
v -896 -640 0
v -960 -640 0
v -1024 -640 0
v -1088 -640 0
v -1152 -640 0
v 0 -704 0
v -64 -704 0
v -128 -704 0
v -192 -704 0
v -256 -704 0
v -320 -704 0
v -384 -704 0
v -448 -704 0
v -512 -704 0
v -576 -704 0
v -640 -704 0
v -704 -704 0
v -768 -704 0
v -832 -704 0
v -896 -704 0
v -960 -704 0
v -1024 -704 0
v -1088 -704 0
v -1152 -704 0
v 0 -768 0
v -64 -768 0
v -128 -768 0
v -192 -768 0
v -256 -768 0
v -320 -768 0
v -384 -768 0
v -448 -768 0
v -512 -768 0
v -576 -768 0
v -640 -768 0
v -704 -768 0
v -768 -768 0
v -832 -768 0
v -896 -768 0
v -960 -768 0
v -1024 -768 0
v -1088 -768 0
v -1152 -768 0
v 0 -832 0
v -64 -832 0
v -128 -832 0
v -192 -832 0
v -256 -832 0
v -320 -832 0
v -384 -832 0
v -768 -832 0
v -832 -832 0
v -896 -832 0
v -960 -832 0
v -1024 -832 0
v -1088 -832 0
v -1152 -832 0
v 0 -896 0
v -64 -896 0
v -128 -896 0
v -192 -896 0
v -256 -896 0
v -320 -896 0
v -384 -896 0
v -768 -896 0
v -832 -896 0
v -896 -896 0
v -960 -896 0
v -1024 -896 0
v -1088 -896 0
v -1152 -896 0
v 0 -960 0
v -64 -960 0
v -128 -960 0
v -192 -960 0
v -256 -960 0
v -320 -960 0
v -384 -960 0
v -448 -960 0
v -448 -896 0
v -512 -960 0
v -512 -896 0
v -576 -960 0
v -576 -896 0
v -640 -960 0
v -640 -896 0
v -704 -960 0
v -704 -896 0
v -768 -960 0
v -832 -960 0
v -896 -960 0
v -960 -960 0
v -1024 -960 0
v -1088 -960 0
v -1152 -960 0
v 0 -1024 0
v -64 -1024 0
v -128 -1024 0
v -192 -1024 0
v -256 -1024 0
v -320 -1024 0
v -384 -1024 0
v -448 -1024 0
v -512 -1024 0
v -576 -1024 0
v -640 -1024 0
v -704 -1024 0
v -768 -1024 0
v -832 -1024 0
v -896 -1024 0
v -960 -1024 0
v -1024 -1024 0
v -1088 -1024 0
v -1152 -1024 0
v 0 -1088 0
v -64 -1088 0
v -128 -1088 0
v -192 -1088 0
v -256 -1088 0
v -320 -1088 0
v -384 -1088 0
v -448 -1088 0
v -512 -1088 0
v -576 -1088 0
v -640 -1088 0
v -704 -1088 0
v -768 -1088 0
v -832 -1088 0
v -896 -1088 0
v -960 -1088 0
v -1024 -1088 0
v -1088 -1088 0
v -1152 -1088 0
v 0 -1152 0
v -64 -1152 0
v -128 -1152 0
v -192 -1152 0
v -256 -1152 0
v -320 -1152 0
v -384 -1152 0
v -448 -1152 0
v -512 -1152 0
v -576 -1152 0
v -640 -1152 0
v -704 -1152 0
v -768 -1152 0
v -832 -1152 0
v -896 -1152 0
v -960 -1152 0
v -1024 -1152 0
v -1088 -1152 0
v -1152 -1152 0
v 0 -1216 0
v -64 -1216 0
v -128 -1216 0
v -192 -1216 0
v -256 -1216 0
v -320 -1216 0
v -384 -1216 0
v -448 -1216 0
v -512 -1216 0
v -576 -1216 0
v -640 -1216 0
v -704 -1216 0
v -768 -1216 0
v -832 -1216 0
v -896 -1216 0
v -960 -1216 0
v -1024 -1216 0
v -1088 -1216 0
v -1152 -1216 0
v 0 -1280 0
v -64 -1280 0
v -128 -1280 0
v -192 -1280 0
v -256 -1280 0
v -320 -1280 0
v -384 -1280 0
v -448 -1280 0
v -512 -1280 0
v -576 -1280 0
v -640 -1280 0
v -704 -1280 0
v -768 -1280 0
v -832 -1280 0
v -896 -1280 0
v -960 -1280 0
v -1024 -1280 0
v -1088 -1280 0
v -1152 -1280 0

# Texture Coorindates (Count = 16)
vt 0.09375 0.875
vt 0.125 0.875
vt 0.125 0.90625
vt 0.09375 0.90625
vt 0.15625 0.875
vt 0.1875 0.875
vt 0.1875 0.90625
vt 0.15625 0.90625
vt 0.09375 0.8125
vt 0.125 0.8125
vt 0.125 0.84375
vt 0.09375 0.84375
vt 0.15625 0.8125
vt 0.1875 0.8125
vt 0.1875 0.84375
vt 0.15625 0.84375

# Normal
vn 0 0 -1

# Groups (Count = 1)
g mesh_[00]_[01]
f  1/1/1  2/2/1  3/3/1  4/4/1 
f  2/5/1  5/6/1  6/7/1  3/8/1 
f  5/1/1  7/2/1  8/3/1  6/4/1 
f  7/5/1  9/6/1  10/7/1  8/8/1 
f  9/1/1  11/2/1  12/3/1  10/4/1 
f  11/5/1  13/6/1  14/7/1  12/8/1 
f  13/1/1  15/2/1  16/3/1  14/4/1 
f  15/5/1  17/6/1  18/7/1  16/8/1 
f  17/1/1  19/2/1  20/3/1  18/4/1 
f  19/5/1  21/6/1  22/7/1  20/8/1 
f  21/1/1  23/2/1  24/3/1  22/4/1 
f  23/5/1  25/6/1  26/7/1  24/8/1 
f  25/1/1  27/2/1  28/3/1  26/4/1 
f  27/5/1  29/6/1  30/7/1  28/8/1 
f  29/1/1  31/2/1  32/3/1  30/4/1 
f  31/5/1  33/6/1  34/7/1  32/8/1 
f  33/1/1  35/2/1  36/3/1  34/4/1 
f  35/5/1  37/6/1  38/7/1  36/8/1 
f  39/9/1  40/10/1  2/11/1  1/12/1 
f  40/13/1  41/14/1  5/15/1  2/16/1 
f  41/9/1  42/10/1  7/11/1  5/12/1 
f  42/13/1  43/14/1  9/15/1  7/16/1 
f  43/9/1  44/10/1  11/11/1  9/12/1 
f  44/13/1  45/14/1  13/15/1  11/16/1 
f  45/9/1  46/10/1  15/11/1  13/12/1 
f  46/13/1  47/14/1  17/15/1  15/16/1 
f  47/9/1  48/10/1  19/11/1  17/12/1 
f  48/13/1  49/14/1  21/15/1  19/16/1 
f  49/9/1  50/10/1  23/11/1  21/12/1 
f  50/13/1  51/14/1  25/15/1  23/16/1 
f  51/9/1  52/10/1  27/11/1  25/12/1 
f  52/13/1  53/14/1  29/15/1  27/16/1 
f  53/9/1  54/10/1  31/11/1  29/12/1 
f  54/13/1  55/14/1  33/15/1  31/16/1 
f  55/9/1  56/10/1  35/11/1  33/12/1 
f  56/13/1  57/14/1  37/15/1  35/16/1 
f  58/1/1  59/2/1  40/3/1  39/4/1 
f  59/5/1  60/6/1  41/7/1  40/8/1 
f  60/1/1  61/2/1  42/3/1  41/4/1 
f  61/5/1  62/6/1  43/7/1  42/8/1 
f  62/1/1  63/2/1  44/3/1  43/4/1 
f  63/5/1  64/6/1  45/7/1  44/8/1 
f  64/1/1  65/2/1  46/3/1  45/4/1 
f  65/5/1  66/6/1  47/7/1  46/8/1 
f  66/1/1  67/2/1  48/3/1  47/4/1 
f  67/5/1  68/6/1  49/7/1  48/8/1 
f  68/1/1  69/2/1  50/3/1  49/4/1 
f  69/5/1  70/6/1  51/7/1  50/8/1 
f  70/1/1  71/2/1  52/3/1  51/4/1 
f  71/5/1  72/6/1  53/7/1  52/8/1 
f  72/1/1  73/2/1  54/3/1  53/4/1 
f  73/5/1  74/6/1  55/7/1  54/8/1 
f  74/1/1  75/2/1  56/3/1  55/4/1 
f  75/5/1  76/6/1  57/7/1  56/8/1 
f  77/9/1  78/10/1  59/11/1  58/12/1 
f  78/13/1  79/14/1  60/15/1  59/16/1 
f  79/9/1  80/10/1  61/11/1  60/12/1 
f  80/13/1  81/14/1  62/15/1  61/16/1 
f  81/9/1  82/10/1  63/11/1  62/12/1 
f  82/13/1  83/14/1  64/15/1  63/16/1 
f  83/9/1  84/10/1  65/11/1  64/12/1 
f  84/13/1  85/14/1  66/15/1  65/16/1 
f  85/9/1  86/10/1  67/11/1  66/12/1 
f  86/13/1  87/14/1  68/15/1  67/16/1 
f  87/9/1  88/10/1  69/11/1  68/12/1 
f  88/13/1  89/14/1  70/15/1  69/16/1 
f  89/9/1  90/10/1  71/11/1  70/12/1 
f  90/13/1  91/14/1  72/15/1  71/16/1 
f  91/9/1  92/10/1  73/11/1  72/12/1 
f  92/13/1  93/14/1  74/15/1  73/16/1 
f  93/9/1  94/10/1  75/11/1  74/12/1 
f  94/13/1  95/14/1  76/15/1  75/16/1 
f  96/1/1  97/2/1  78/3/1  77/4/1 
f  97/5/1  98/6/1  79/7/1  78/8/1 
f  98/1/1  99/2/1  80/3/1  79/4/1 
f  99/5/1  100/6/1  81/7/1  80/8/1 
f  100/1/1  101/2/1  82/3/1  81/4/1 
f  101/5/1  102/6/1  83/7/1  82/8/1 
f  103/1/1  104/2/1  90/3/1  89/4/1 
f  104/5/1  105/6/1  91/7/1  90/8/1 
f  105/1/1  106/2/1  92/3/1  91/4/1 
f  106/5/1  107/6/1  93/7/1  92/8/1 
f  107/1/1  108/2/1  94/3/1  93/4/1 
f  108/5/1  109/6/1  95/7/1  94/8/1 
f  110/9/1  111/10/1  97/11/1  96/12/1 
f  111/13/1  112/14/1  98/15/1  97/16/1 
f  112/9/1  113/10/1  99/11/1  98/12/1 
f  113/13/1  114/14/1  100/15/1  99/16/1 
f  114/9/1  115/10/1  101/11/1  100/12/1 
f  115/13/1  116/14/1  102/15/1  101/16/1 
f  117/9/1  118/10/1  104/11/1  103/12/1 
f  118/13/1  119/14/1  105/15/1  104/16/1 
f  119/9/1  120/10/1  106/11/1  105/12/1 
f  120/13/1  121/14/1  107/15/1  106/16/1 
f  121/9/1  122/10/1  108/11/1  107/12/1 
f  122/13/1  123/14/1  109/15/1  108/16/1 
f  124/1/1  125/2/1  111/3/1  110/4/1 
f  125/5/1  126/6/1  112/7/1  111/8/1 
f  126/1/1  127/2/1  113/3/1  112/4/1 
f  127/5/1  128/6/1  114/7/1  113/8/1 
f  128/1/1  129/2/1  115/3/1  114/4/1 
f  129/5/1  130/6/1  116/7/1  115/8/1 
f  130/1/1  131/2/1  132/3/1  116/4/1 
f  131/5/1  133/6/1  134/7/1  132/8/1 
f  133/1/1  135/2/1  136/3/1  134/4/1 
f  135/5/1  137/6/1  138/7/1  136/8/1 
f  137/1/1  139/2/1  140/3/1  138/4/1 
f  139/5/1  141/6/1  117/7/1  140/8/1 
f  141/1/1  142/2/1  118/3/1  117/4/1 
f  142/5/1  143/6/1  119/7/1  118/8/1 
f  143/1/1  144/2/1  120/3/1  119/4/1 
f  144/5/1  145/6/1  121/7/1  120/8/1 
f  145/1/1  146/2/1  122/3/1  121/4/1 
f  146/5/1  147/6/1  123/7/1  122/8/1 
f  148/9/1  149/10/1  125/11/1  124/12/1 
f  149/13/1  150/14/1  126/15/1  125/16/1 
f  150/9/1  151/10/1  127/11/1  126/12/1 
f  151/13/1  152/14/1  128/15/1  127/16/1 
f  152/9/1  153/10/1  129/11/1  128/12/1 
f  153/13/1  154/14/1  130/15/1  129/16/1 
f  154/9/1  155/10/1  131/11/1  130/12/1 
f  155/13/1  156/14/1  133/15/1  131/16/1 
f  156/9/1  157/10/1  135/11/1  133/12/1 
f  157/13/1  158/14/1  137/15/1  135/16/1 
f  158/9/1  159/10/1  139/11/1  137/12/1 
f  159/13/1  160/14/1  141/15/1  139/16/1 
f  160/9/1  161/10/1  142/11/1  141/12/1 
f  161/13/1  162/14/1  143/15/1  142/16/1 
f  162/9/1  163/10/1  144/11/1  143/12/1 
f  163/13/1  164/14/1  145/15/1  144/16/1 
f  164/9/1  165/10/1  146/11/1  145/12/1 
f  165/13/1  166/14/1  147/15/1  146/16/1 
f  167/1/1  168/2/1  149/3/1  148/4/1 
f  168/5/1  169/6/1  150/7/1  149/8/1 
f  169/1/1  170/2/1  151/3/1  150/4/1 
f  170/5/1  171/6/1  152/7/1  151/8/1 
f  171/1/1  172/2/1  153/3/1  152/4/1 
f  172/5/1  173/6/1  154/7/1  153/8/1 
f  173/1/1  174/2/1  155/3/1  154/4/1 
f  174/5/1  175/6/1  156/7/1  155/8/1 
f  175/1/1  176/2/1  157/3/1  156/4/1 
f  176/5/1  177/6/1  158/7/1  157/8/1 
f  177/1/1  178/2/1  159/3/1  158/4/1 
f  178/5/1  179/6/1  160/7/1  159/8/1 
f  179/1/1  180/2/1  161/3/1  160/4/1 
f  180/5/1  181/6/1  162/7/1  161/8/1 
f  181/1/1  182/2/1  163/3/1  162/4/1 
f  182/5/1  183/6/1  164/7/1  163/8/1 
f  183/1/1  184/2/1  165/3/1  164/4/1 
f  184/5/1  185/6/1  166/7/1  165/8/1 
f  186/9/1  187/10/1  168/11/1  167/12/1 
f  187/13/1  188/14/1  169/15/1  168/16/1 
f  188/9/1  189/10/1  170/11/1  169/12/1 
f  189/13/1  190/14/1  171/15/1  170/16/1 
f  190/9/1  191/10/1  172/11/1  171/12/1 
f  191/13/1  192/14/1  173/15/1  172/16/1 
f  192/9/1  193/10/1  174/11/1  173/12/1 
f  193/13/1  194/14/1  175/15/1  174/16/1 
f  194/9/1  195/10/1  176/11/1  175/12/1 
f  195/13/1  196/14/1  177/15/1  176/16/1 
f  196/9/1  197/10/1  178/11/1  177/12/1 
f  197/13/1  198/14/1  179/15/1  178/16/1 
f  198/9/1  199/10/1  180/11/1  179/12/1 
f  199/13/1  200/14/1  181/15/1  180/16/1 
f  200/9/1  201/10/1  182/11/1  181/12/1 
f  201/13/1  202/14/1  183/15/1  182/16/1 
f  202/9/1  203/10/1  184/11/1  183/12/1 
f  203/13/1  204/14/1  185/15/1  184/16/1 
f  205/1/1  206/2/1  187/3/1  186/4/1 
f  206/5/1  207/6/1  188/7/1  187/8/1 
f  207/1/1  208/2/1  189/3/1  188/4/1 
f  208/5/1  209/6/1  190/7/1  189/8/1 
f  209/1/1  210/2/1  191/3/1  190/4/1 
f  210/5/1  211/6/1  192/7/1  191/8/1 
f  211/1/1  212/2/1  193/3/1  192/4/1 
f  212/5/1  213/6/1  194/7/1  193/8/1 
f  213/1/1  214/2/1  195/3/1  194/4/1 
f  214/5/1  215/6/1  196/7/1  195/8/1 
f  215/1/1  216/2/1  197/3/1  196/4/1 
f  216/5/1  217/6/1  198/7/1  197/8/1 
f  217/1/1  218/2/1  199/3/1  198/4/1 
f  218/5/1  219/6/1  200/7/1  199/8/1 
f  219/1/1  220/2/1  201/3/1  200/4/1 
f  220/5/1  221/6/1  202/7/1  201/8/1 
f  221/1/1  222/2/1  203/3/1  202/4/1 
f  222/5/1  223/6/1  204/7/1  203/8/1 
f  224/9/1  225/10/1  206/11/1  205/12/1 
f  225/13/1  226/14/1  207/15/1  206/16/1 
f  226/9/1  227/10/1  208/11/1  207/12/1 
f  227/13/1  228/14/1  209/15/1  208/16/1 
f  228/9/1  229/10/1  210/11/1  209/12/1 
f  229/13/1  230/14/1  211/15/1  210/16/1 
f  230/9/1  231/10/1  212/11/1  211/12/1 
f  231/13/1  232/14/1  213/15/1  212/16/1 
f  232/9/1  233/10/1  214/11/1  213/12/1 
f  233/13/1  234/14/1  215/15/1  214/16/1 
f  234/9/1  235/10/1  216/11/1  215/12/1 
f  235/13/1  236/14/1  217/15/1  216/16/1 
f  236/9/1  237/10/1  218/11/1  217/12/1 
f  237/13/1  238/14/1  219/15/1  218/16/1 
f  238/9/1  239/10/1  220/11/1  219/12/1 
f  239/13/1  240/14/1  221/15/1  220/16/1 
f  240/9/1  241/10/1  222/11/1  221/12/1 
f  241/13/1  242/14/1  223/15/1  222/16/1 
f  243/1/1  244/2/1  225/3/1  224/4/1 
f  244/5/1  245/6/1  226/7/1  225/8/1 
f  245/1/1  246/2/1  227/3/1  226/4/1 
f  246/5/1  247/6/1  228/7/1  227/8/1 
f  247/1/1  248/2/1  229/3/1  228/4/1 
f  248/5/1  249/6/1  230/7/1  229/8/1 
f  250/1/1  251/2/1  237/3/1  236/4/1 
f  251/5/1  252/6/1  238/7/1  237/8/1 
f  252/1/1  253/2/1  239/3/1  238/4/1 
f  253/5/1  254/6/1  240/7/1  239/8/1 
f  254/1/1  255/2/1  241/3/1  240/4/1 
f  255/5/1  256/6/1  242/7/1  241/8/1 
f  257/9/1  258/10/1  244/11/1  243/12/1 
f  258/13/1  259/14/1  245/15/1  244/16/1 
f  259/9/1  260/10/1  246/11/1  245/12/1 
f  260/13/1  261/14/1  247/15/1  246/16/1 
f  261/9/1  262/10/1  248/11/1  247/12/1 
f  262/13/1  263/14/1  249/15/1  248/16/1 
f  264/9/1  265/10/1  251/11/1  250/12/1 
f  265/13/1  266/14/1  252/15/1  251/16/1 
f  266/9/1  267/10/1  253/11/1  252/12/1 
f  267/13/1  268/14/1  254/15/1  253/16/1 
f  268/9/1  269/10/1  255/11/1  254/12/1 
f  269/13/1  270/14/1  256/15/1  255/16/1 
f  271/1/1  272/2/1  258/3/1  257/4/1 
f  272/5/1  273/6/1  259/7/1  258/8/1 
f  273/1/1  274/2/1  260/3/1  259/4/1 
f  274/5/1  275/6/1  261/7/1  260/8/1 
f  275/1/1  276/2/1  262/3/1  261/4/1 
f  276/5/1  277/6/1  263/7/1  262/8/1 
f  277/1/1  278/2/1  279/3/1  263/4/1 
f  278/5/1  280/6/1  281/7/1  279/8/1 
f  280/1/1  282/2/1  283/3/1  281/4/1 
f  282/5/1  284/6/1  285/7/1  283/8/1 
f  284/1/1  286/2/1  287/3/1  285/4/1 
f  286/5/1  288/6/1  264/7/1  287/8/1 
f  288/1/1  289/2/1  265/3/1  264/4/1 
f  289/5/1  290/6/1  266/7/1  265/8/1 
f  290/1/1  291/2/1  267/3/1  266/4/1 
f  291/5/1  292/6/1  268/7/1  267/8/1 
f  292/1/1  293/2/1  269/3/1  268/4/1 
f  293/5/1  294/6/1  270/7/1  269/8/1 
f  295/9/1  296/10/1  272/11/1  271/12/1 
f  296/13/1  297/14/1  273/15/1  272/16/1 
f  297/9/1  298/10/1  274/11/1  273/12/1 
f  298/13/1  299/14/1  275/15/1  274/16/1 
f  299/9/1  300/10/1  276/11/1  275/12/1 
f  300/13/1  301/14/1  277/15/1  276/16/1 
f  301/9/1  302/10/1  278/11/1  277/12/1 
f  302/13/1  303/14/1  280/15/1  278/16/1 
f  303/9/1  304/10/1  282/11/1  280/12/1 
f  304/13/1  305/14/1  284/15/1  282/16/1 
f  305/9/1  306/10/1  286/11/1  284/12/1 
f  306/13/1  307/14/1  288/15/1  286/16/1 
f  307/9/1  308/10/1  289/11/1  288/12/1 
f  308/13/1  309/14/1  290/15/1  289/16/1 
f  309/9/1  310/10/1  291/11/1  290/12/1 
f  310/13/1  311/14/1  292/15/1  291/16/1 
f  311/9/1  312/10/1  293/11/1  292/12/1 
f  312/13/1  313/14/1  294/15/1  293/16/1 
f  314/1/1  315/2/1  296/3/1  295/4/1 
f  315/5/1  316/6/1  297/7/1  296/8/1 
f  316/1/1  317/2/1  298/3/1  297/4/1 
f  317/5/1  318/6/1  299/7/1  298/8/1 
f  318/1/1  319/2/1  300/3/1  299/4/1 
f  319/5/1  320/6/1  301/7/1  300/8/1 
f  320/1/1  321/2/1  302/3/1  301/4/1 
f  321/5/1  322/6/1  303/7/1  302/8/1 
f  322/1/1  323/2/1  304/3/1  303/4/1 
f  323/5/1  324/6/1  305/7/1  304/8/1 
f  324/1/1  325/2/1  306/3/1  305/4/1 
f  325/5/1  326/6/1  307/7/1  306/8/1 
f  326/1/1  327/2/1  308/3/1  307/4/1 
f  327/5/1  328/6/1  309/7/1  308/8/1 
f  328/1/1  329/2/1  310/3/1  309/4/1 
f  329/5/1  330/6/1  311/7/1  310/8/1 
f  330/1/1  331/2/1  312/3/1  311/4/1 
f  331/5/1  332/6/1  313/7/1  312/8/1 
f  333/9/1  334/10/1  315/11/1  314/12/1 
f  334/13/1  335/14/1  316/15/1  315/16/1 
f  335/9/1  336/10/1  317/11/1  316/12/1 
f  336/13/1  337/14/1  318/15/1  317/16/1 
f  337/9/1  338/10/1  319/11/1  318/12/1 
f  338/13/1  339/14/1  320/15/1  319/16/1 
f  339/9/1  340/10/1  321/11/1  320/12/1 
f  340/13/1  341/14/1  322/15/1  321/16/1 
f  341/9/1  342/10/1  323/11/1  322/12/1 
f  342/13/1  343/14/1  324/15/1  323/16/1 
f  343/9/1  344/10/1  325/11/1  324/12/1 
f  344/13/1  345/14/1  326/15/1  325/16/1 
f  345/9/1  346/10/1  327/11/1  326/12/1 
f  346/13/1  347/14/1  328/15/1  327/16/1 
f  347/9/1  348/10/1  329/11/1  328/12/1 
f  348/13/1  349/14/1  330/15/1  329/16/1 
f  349/9/1  350/10/1  331/11/1  330/12/1 
f  350/13/1  351/14/1  332/15/1  331/16/1 
f  352/1/1  353/2/1  334/3/1  333/4/1 
f  353/5/1  354/6/1  335/7/1  334/8/1 
f  354/1/1  355/2/1  336/3/1  335/4/1 
f  355/5/1  356/6/1  337/7/1  336/8/1 
f  356/1/1  357/2/1  338/3/1  337/4/1 
f  357/5/1  358/6/1  339/7/1  338/8/1 
f  358/1/1  359/2/1  340/3/1  339/4/1 
f  359/5/1  360/6/1  341/7/1  340/8/1 
f  360/1/1  361/2/1  342/3/1  341/4/1 
f  361/5/1  362/6/1  343/7/1  342/8/1 
f  362/1/1  363/2/1  344/3/1  343/4/1 
f  363/5/1  364/6/1  345/7/1  344/8/1 
f  364/1/1  365/2/1  346/3/1  345/4/1 
f  365/5/1  366/6/1  347/7/1  346/8/1 
f  366/1/1  367/2/1  348/3/1  347/4/1 
f  367/5/1  368/6/1  349/7/1  348/8/1 
f  368/1/1  369/2/1  350/3/1  349/4/1 
f  369/5/1  370/6/1  351/7/1  350/8/1 
f  371/9/1  372/10/1  353/11/1  352/12/1 
f  372/13/1  373/14/1  354/15/1  353/16/1 
f  373/9/1  374/10/1  355/11/1  354/12/1 
f  374/13/1  375/14/1  356/15/1  355/16/1 
f  375/9/1  376/10/1  357/11/1  356/12/1 
f  376/13/1  377/14/1  358/15/1  357/16/1 
f  377/9/1  378/10/1  359/11/1  358/12/1 
f  378/13/1  379/14/1  360/15/1  359/16/1 
f  379/9/1  380/10/1  361/11/1  360/12/1 
f  380/13/1  381/14/1  362/15/1  361/16/1 
f  381/9/1  382/10/1  363/11/1  362/12/1 
f  382/13/1  383/14/1  364/15/1  363/16/1 
f  383/9/1  384/10/1  365/11/1  364/12/1 
f  384/13/1  385/14/1  366/15/1  365/16/1 
f  385/9/1  386/10/1  367/11/1  366/12/1 
f  386/13/1  387/14/1  368/15/1  367/16/1 
f  387/9/1  388/10/1  369/11/1  368/12/1 
f  388/13/1  389/14/1  370/15/1  369/16/1 
