# Wavefront OBJ file automatically generated by Tiled2Unity

# Vertices (Count = 200)
v 0 -32 0
v -32 -32 0
v -32 0 0
v 0 0 0
v -64 -32 0
v -64 0 0
v -128 -32 0
v -160 -32 0
v -160 0 0
v -128 0 0
v -192 -32 0
v -192 0 0
v -224 -32 0
v -224 0 0
v -256 -32 0
v -256 0 0
v -288 -32 0
v -288 0 0
v -448 -32 0
v -480 -32 0
v -480 0 0
v -448 0 0
v -512 -32 0
v -512 0 0
v 0 -64 0
v -32 -64 0
v -64 -64 0
v -128 -64 0
v -160 -64 0
v -192 -64 0
v -224 -64 0
v -256 -64 0
v -288 -64 0
v -320 -64 0
v -320 -32 0
v -352 -64 0
v -352 -32 0
v -448 -64 0
v -480 -64 0
v -512 -64 0
v 0 -96 0
v -32 -96 0
v -64 -96 0
v -128 -96 0
v -160 -96 0
v -192 -96 0
v -224 -96 0
v -256 -96 0
v -288 -96 0
v -320 -96 0
v -352 -96 0
v -448 -96 0
v -480 -96 0
v -512 -96 0
v 0 -128 0
v -32 -128 0
v -64 -128 0
v -128 -128 0
v -160 -128 0
v -192 -128 0
v -224 -128 0
v -256 -128 0
v -288 -128 0
v -320 -128 0
v -352 -128 0
v -448 -128 0
v -480 -128 0
v -512 -128 0
v 0 -160 0
v -32 -160 0
v -64 -160 0
v -128 -160 0
v -160 -160 0
v -192 -160 0
v -224 -160 0
v -256 -160 0
v -320 -160 0
v -352 -160 0
v -384 -160 0
v -384 -128 0
v -448 -160 0
v -480 -160 0
v -512 -160 0
v 0 -192 0
v -32 -192 0
v -64 -192 0
v -128 -192 0
v -160 -192 0
v -192 -192 0
v -224 -192 0
v -256 -192 0
v -320 -192 0
v -352 -192 0
v -384 -192 0
v -448 -192 0
v -480 -192 0
v -512 -192 0
v 0 -224 0
v -32 -224 0
v -64 -224 0
v -96 -224 0
v -96 -192 0
v -128 -224 0
v -160 -224 0
v -192 -224 0
v -224 -224 0
v -256 -224 0
v -288 -224 0
v -288 -192 0
v -320 -224 0
v -352 -224 0
v -384 -224 0
v -416 -224 0
v -416 -192 0
v -448 -224 0
v -480 -224 0
v -512 -224 0
v 0 -256 0
v -32 -256 0
v -64 -256 0
v -96 -256 0
v -128 -256 0
v -160 -256 0
v -192 -256 0
v -224 -256 0
v -256 -256 0
v -288 -256 0
v -320 -256 0
v -352 -256 0
v -384 -256 0
v -416 -256 0
v -448 -256 0
v -480 -256 0
v -512 -256 0
v 0 -288 0
v -32 -288 0
v -64 -288 0
v -96 -288 0
v -128 -288 0
v -160 -288 0
v -192 -288 0
v -224 -288 0
v -256 -288 0
v -288 -288 0
v -320 -288 0
v -352 -288 0
v -384 -288 0
v -416 -288 0
v -448 -288 0
v -480 -288 0
v -512 -288 0
v 0 -320 0
v -32 -320 0
v -64 -320 0
v -96 -320 0
v -128 -320 0
v -160 -320 0
v -192 -320 0
v -224 -320 0
v -256 -320 0
v -288 -320 0
v -320 -320 0
v -352 -320 0
v -384 -320 0
v -416 -320 0
v -448 -320 0
v -480 -320 0
v -512 -320 0
v -96 -352 0
v -128 -352 0
v -160 -352 0
v -192 -352 0
v -224 -352 0
v -256 -352 0
v -288 -352 0
v -320 -352 0
v -352 -352 0
v -384 -352 0
v -416 -352 0
v -448 -352 0
v -480 -352 0
v -512 -352 0
v -96 -384 0
v -128 -384 0
v -160 -384 0
v -192 -384 0
v -320 -384 0
v -352 -384 0
v -384 -384 0
v -416 -384 0
v -448 -384 0
v -96 -416 0
v -128 -416 0
v -160 -416 0
v -192 -416 0
v -320 -416 0
v -352 -416 0
v -384 -416 0
v -416 -416 0
v -448 -416 0

# Texture Coorindates (Count = 49)
vt 0 0.9
vt 0.08333334 0.9
vt 0.08333334 1
vt 0 1
vt 0.25 0.7
vt 0.3333333 0.7
vt 0.3333333 0.8
vt 0.25 0.8
vt 0 0.7
vt 0.08333334 0.7
vt 0.08333334 0.8
vt 0 0.8
vt 0.1666667 0.7
vt 0.1666667 0.8
vt 0.1666667 0.9
vt 0.1666667 1
vt 0 0.6
vt 0.08333334 0.6
vt 0.25 0.6
vt 0.3333333 0.6
vt 0 0.5
vt 0.08333334 0.5
vt 0.1666667 0.5
vt 0.1666667 0.6
vt 0.25 0.5
vt 0.25 0.9
vt 0.3333333 0.9
vt 0.3333333 1
vt 0.25 1
vt 0.3333333 0.5
vt 0 0.4
vt 0.08333334 0.4
vt 0.1666667 0.4
vt 0.25 0.4
vt 0.3333333 0.4
vt 0.1666667 0.2
vt 0.25 0.2
vt 0.25 0.3
vt 0.1666667 0.3
vt 0.3333333 0.2
vt 0.3333333 0.3
vt 0.08333334 0.3
vt 0.1666667 0.1
vt 0.25 0.1
vt 0.3333333 0.1
vt 0.1666667 0
vt 0.25 0
vt 0.3333333 0
vt 0 0.3

# Normal
vn 0 0 -1

# Groups (Count = 1)
g Tile_Layer_1_00+PlaceholderTileset2
f  1/1/1  2/2/1  3/3/1  4/4/1 
f  2/5/1  5/6/1  6/7/1  3/8/1 
f  7/9/1  8/10/1  9/11/1  10/12/1 
f  8/13/1  11/5/1  12/8/1  9/14/1 
f  11/10/1  13/13/1  14/14/1  12/11/1 
f  13/13/1  15/5/1  16/8/1  14/14/1 
f  15/5/1  17/6/1  18/7/1  16/8/1 
f  19/1/1  20/2/1  21/3/1  22/4/1 
f  20/2/1  23/15/1  24/16/1  21/3/1 
f  25/17/1  26/18/1  2/10/1  1/9/1 
f  26/19/1  27/20/1  5/6/1  2/5/1 
f  28/21/1  29/22/1  8/18/1  7/17/1 
f  29/22/1  30/23/1  11/24/1  8/18/1 
f  30/23/1  31/25/1  13/19/1  11/24/1 
f  31/24/1  32/19/1  15/5/1  13/13/1 
f  32/26/1  33/27/1  17/28/1  15/29/1 
f  33/13/1  34/5/1  35/8/1  17/14/1 
f  34/5/1  36/6/1  37/7/1  35/8/1 
f  38/17/1  39/18/1  20/10/1  19/9/1 
f  39/19/1  40/20/1  23/6/1  20/5/1 
f  41/17/1  42/18/1  26/10/1  25/9/1 
f  42/25/1  43/30/1  27/20/1  26/19/1 
f  44/31/1  45/32/1  29/22/1  28/21/1 
f  45/32/1  46/33/1  30/23/1  29/22/1 
f  46/32/1  47/33/1  31/23/1  30/22/1 
f  47/33/1  48/34/1  32/25/1  31/23/1 
f  48/32/1  49/33/1  33/23/1  32/22/1 
f  49/33/1  50/34/1  34/25/1  33/23/1 
f  50/34/1  51/35/1  36/30/1  34/25/1 
f  52/21/1  53/22/1  39/18/1  38/17/1 
f  53/25/1  54/30/1  40/20/1  39/19/1 
f  55/21/1  56/22/1  42/18/1  41/17/1 
f  56/19/1  57/20/1  43/6/1  42/5/1 
f  58/36/1  59/37/1  45/38/1  44/39/1 
f  59/37/1  60/40/1  46/41/1  45/38/1 
f  60/36/1  61/37/1  47/38/1  46/39/1 
f  61/37/1  62/40/1  48/41/1  47/38/1 
f  62/42/1  63/39/1  49/33/1  48/32/1 
f  63/39/1  64/38/1  50/34/1  49/33/1 
f  64/38/1  65/41/1  51/35/1  50/34/1 
f  66/17/1  67/18/1  53/10/1  52/9/1 
f  67/19/1  68/20/1  54/6/1  53/5/1 
f  69/17/1  70/18/1  56/10/1  55/9/1 
f  70/25/1  71/30/1  57/20/1  56/19/1 
f  72/43/1  73/44/1  59/37/1  58/36/1 
f  73/44/1  74/45/1  60/40/1  59/37/1 
f  74/43/1  75/44/1  61/37/1  60/36/1 
f  75/44/1  76/45/1  62/40/1  61/37/1 
f  77/9/1  78/10/1  65/11/1  64/12/1 
f  78/5/1  79/6/1  80/7/1  65/8/1 
f  81/21/1  82/22/1  67/18/1  66/17/1 
f  82/25/1  83/30/1  68/20/1  67/19/1 
f  84/21/1  85/22/1  70/18/1  69/17/1 
f  85/25/1  86/30/1  71/20/1  70/19/1 
f  87/46/1  88/47/1  73/44/1  72/43/1 
f  88/47/1  89/48/1  74/45/1  73/44/1 
f  89/46/1  90/47/1  75/44/1  74/43/1 
f  90/47/1  91/48/1  76/45/1  75/44/1 
f  92/17/1  93/18/1  78/10/1  77/9/1 
f  93/19/1  94/20/1  79/6/1  78/5/1 
f  95/21/1  96/22/1  82/18/1  81/17/1 
f  96/25/1  97/30/1  83/20/1  82/19/1 
f  98/17/1  99/18/1  85/10/1  84/9/1 
f  99/26/1  100/27/1  86/28/1  85/29/1 
f  100/10/1  101/13/1  102/14/1  86/11/1 
f  101/13/1  103/5/1  87/8/1  102/14/1 
f  103/15/1  104/26/1  88/29/1  87/16/1 
f  104/18/1  105/24/1  89/13/1  88/10/1 
f  105/18/1  106/24/1  90/13/1  89/10/1 
f  106/26/1  107/27/1  91/28/1  90/29/1 
f  107/10/1  108/13/1  109/14/1  91/11/1 
f  108/13/1  110/5/1  92/8/1  109/14/1 
f  110/15/1  111/26/1  93/29/1  92/16/1 
f  111/26/1  112/27/1  94/28/1  93/29/1 
f  112/10/1  113/13/1  114/14/1  94/11/1 
f  113/13/1  115/5/1  95/8/1  114/14/1 
f  115/15/1  116/26/1  96/29/1  95/16/1 
f  116/19/1  117/20/1  97/6/1  96/5/1 
f  118/21/1  119/22/1  99/18/1  98/17/1 
f  119/22/1  120/23/1  100/24/1  99/18/1 
f  120/23/1  121/25/1  101/19/1  100/24/1 
f  121/24/1  122/19/1  103/5/1  101/13/1 
f  122/18/1  123/24/1  104/13/1  103/10/1 
f  123/24/1  124/19/1  105/5/1  104/13/1 
f  124/18/1  125/24/1  106/13/1  105/10/1 
f  125/24/1  126/19/1  107/5/1  106/13/1 
f  126/18/1  127/24/1  108/13/1  107/10/1 
f  127/24/1  128/19/1  110/5/1  108/13/1 
f  128/18/1  129/24/1  111/13/1  110/10/1 
f  129/24/1  130/19/1  112/5/1  111/13/1 
f  130/18/1  131/24/1  113/13/1  112/10/1 
f  131/24/1  132/19/1  115/5/1  113/13/1 
f  132/23/1  133/25/1  116/19/1  115/24/1 
f  133/25/1  134/30/1  117/20/1  116/19/1 
f  135/31/1  136/32/1  119/22/1  118/21/1 
f  136/32/1  137/33/1  120/23/1  119/22/1 
f  137/33/1  138/34/1  121/25/1  120/23/1 
f  138/14/1  139/8/1  122/26/1  121/15/1 
f  139/22/1  140/23/1  123/24/1  122/18/1 
f  140/23/1  141/25/1  124/19/1  123/24/1 
f  141/22/1  142/23/1  125/24/1  124/18/1 
f  142/23/1  143/25/1  126/19/1  125/24/1 
f  143/22/1  144/23/1  127/24/1  126/18/1 
f  144/23/1  145/25/1  128/19/1  127/24/1 
f  145/22/1  146/23/1  129/24/1  128/18/1 
f  146/23/1  147/25/1  130/19/1  129/24/1 
f  147/22/1  148/23/1  131/24/1  130/18/1 
f  148/23/1  149/25/1  132/19/1  131/24/1 
f  149/23/1  150/25/1  133/19/1  132/24/1 
f  150/25/1  151/30/1  134/20/1  133/19/1 
f  152/49/1  153/42/1  136/32/1  135/31/1 
f  153/42/1  154/39/1  137/33/1  136/32/1 
f  154/39/1  155/38/1  138/34/1  137/33/1 
f  155/17/1  156/18/1  139/10/1  138/9/1 
f  156/24/1  157/19/1  140/5/1  139/13/1 
f  157/8/1  158/7/1  141/27/1  140/26/1 
f  158/32/1  159/33/1  142/23/1  141/22/1 
f  159/33/1  160/34/1  143/25/1  142/23/1 
f  160/32/1  161/33/1  144/23/1  143/22/1 
f  161/33/1  162/34/1  145/25/1  144/23/1 
f  162/14/1  163/8/1  146/26/1  145/15/1 
f  163/22/1  164/23/1  147/24/1  146/18/1 
f  164/23/1  165/25/1  148/19/1  147/24/1 
f  165/8/1  166/7/1  149/27/1  148/26/1 
f  166/33/1  167/34/1  150/25/1  149/23/1 
f  167/34/1  168/35/1  151/30/1  150/25/1 
f  169/21/1  170/22/1  156/18/1  155/17/1 
f  170/23/1  171/25/1  157/19/1  156/24/1 
f  171/25/1  172/30/1  158/20/1  157/19/1 
f  172/49/1  173/42/1  159/32/1  158/31/1 
f  173/42/1  174/39/1  160/33/1  159/32/1 
f  174/39/1  175/38/1  161/34/1  160/33/1 
f  175/38/1  176/41/1  162/35/1  161/34/1 
f  176/21/1  177/22/1  163/18/1  162/17/1 
f  177/22/1  178/23/1  164/24/1  163/18/1 
f  178/23/1  179/25/1  165/19/1  164/24/1 
f  179/25/1  180/30/1  166/20/1  165/19/1 
f  180/39/1  181/38/1  167/34/1  166/33/1 
f  181/38/1  182/41/1  168/35/1  167/34/1 
f  183/31/1  184/32/1  170/22/1  169/21/1 
f  184/32/1  185/33/1  171/23/1  170/22/1 
f  185/34/1  186/35/1  172/30/1  171/25/1 
f  187/31/1  188/32/1  177/22/1  176/21/1 
f  188/32/1  189/33/1  178/23/1  177/22/1 
f  189/33/1  190/34/1  179/25/1  178/23/1 
f  190/34/1  191/35/1  180/30/1  179/25/1 
f  192/49/1  193/42/1  184/32/1  183/31/1 
f  193/42/1  194/39/1  185/33/1  184/32/1 
f  194/38/1  195/41/1  186/35/1  185/34/1 
f  196/49/1  197/42/1  188/32/1  187/31/1 
f  197/42/1  198/39/1  189/33/1  188/32/1 
f  198/39/1  199/38/1  190/34/1  189/33/1 
f  199/38/1  200/41/1  191/35/1  190/34/1 
